Patient4_TMGait_0pt2_02_left_15_GRF.mot
version=1
nRows=51
nColumns=19
inDegrees=no
endheader
time	F1x	F1y	F1z	M1x	M1y	M1z	F2x	F2y	F2z	M2x	M2y	M2z	EC1x	EC1y	EC1z	EC2x	EC2y	EC2z
34.25	5.6561	98.4351	8.1429	-30.7257	-6.3501	100.1811	-0.91385	669.2182	-42.6154	240.8657	51.4355	730.4842	-0.0592	0.0182	-0.0073	-0.0462	0.0165	0.9585
34.2736	4.3546	86.4118	7.8561	-26.9151	-6.3713	87.0605	-5.1138	691.1344	-42.9243	249.0932	53.2395	753.8522	-0.0592	0.0182	-0.0073	-0.0462	0.0165	0.9585
34.2971	2.6903	72.2206	7.2261	-22.4506	-6.1939	72.0595	-9.283	717.4413	-43.3248	258.9017	55.0983	781.6648	-0.0592	0.0182	-0.0073	-0.0462	0.0165	0.9585
34.3207	0.92811	57.025	6.2813	-17.6991	-5.7702	56.3848	-13.122	746.4678	-43.674	269.6772	56.7283	812.0704	-0.0592	0.0182	-0.0073	-0.0462	0.0165	0.9585
34.3443	-0.5891	42.1397	5.1181	-13.0672	-5.0855	41.3126	-16.4032	776.0487	-43.8371	280.6277	57.876	842.7054	-0.0592	0.0182	-0.0073	-0.0462	0.0165	0.9585
34.3679	-1.5467	28.7269	3.8556	-8.9102	-4.1532	27.9244	-18.9481	803.685	-43.7657	290.8324	58.3993	870.8644	-0.0592	0.0182	-0.0073	-0.0462	0.0165	0.9585
34.3914	-1.8385	17.6339	2.6287	-5.4836	-3.0644	16.9709	-20.6014	826.8279	-43.4911	299.3464	58.2576	893.8084	-0.0592	0.0182	-0.0073	-0.0462	0.0165	0.9585
34.415	-1.6778	9.2909	1.5777	-2.914	-2.0125	8.8071	-21.2557	843.2939	-43.0769	305.3558	57.4742	909.2269	-0.0592	0.0182	-0.0073	-0.0462	0.0165	0.9585
34.4386	-1.3	3.5943	0.7684	-1.1666	-1.1282	3.2868	-20.8803	851.7451	-42.5795	308.3557	56.1108	915.7507	-0.0592	0.0182	-0.0073	-0.0462	0.0165	0.9585
34.4621	-0.86384	0.10479	0.19991	-0.10317	-0.45364	-0.061892	-19.5429	852.016	-42.0393	308.2719	54.2664	913.2996	-0.0592	0.0182	-0.0073	-0.0462	0.0165	0.9585
34.4857	-0.46502	-1.7391	-0.16169	0.45251	0.017152	-1.8184	-17.4217	845.1409	-41.4673	305.4756	52.0577	903.1068	-0.0592	0.0182	-0.0073	-0.0462	0.0165	0.9585
34.5093	-0.15092	-2.4958	-0.36047	0.67407	0.31214	-2.5416	-14.7731	833.0882	-40.845	300.6898	49.6006	887.417	-0.0592	0.0182	-0.0073	-0.0462	0.0165	0.9585
34.5329	0.068374	-2.6473	-0.44045	0.71239	0.46847	-2.7061	-11.8792	818.1895	-40.1604	294.7773	47.0207	868.8465	-0.0592	0.0182	-0.0073	-0.0462	0.0165	0.9585
34.5564	0.20281	-2.5649	-0.43847	0.68516	0.51953	-2.6785	-8.9849	802.523	-39.4245	288.5146	44.4461	849.6974	-0.0592	0.0182	-0.0073	-0.0462	0.0165	0.9585
34.58	0.2665	-2.5004	-0.38286	0.67364	0.49189	-2.7054	-6.252	787.5286	-38.6638	282.4519	41.9823	831.5309	-0.0592	0.0182	-0.0073	-0.0462	0.0165	0.9585
34.6036	0.27607	-2.5891	-0.29138	0.72266	0.40454	-2.9063	-3.733	773.958	-37.9167	276.8937	39.7029	815.1021	-0.0592	0.0182	-0.0073	-0.0462	0.0165	0.9585
34.6271	0.24868	-2.8489	-0.17016	0.83974	0.26692	-3.2736	-1.383	762.0956	-37.2266	271.9774	37.6453	800.6049	-0.0592	0.0182	-0.0073	-0.0462	0.0165	0.9585
34.6507	0.2038	-3.1774	-0.014769	0.99293	0.078691	-3.6696	0.8948	752.0294	-36.6502	267.7682	35.8392	787.9942	-0.0592	0.0182	-0.0073	-0.0462	0.0165	0.9585
34.6743	0.16725	-3.3433	0.1831	1.1077	-0.16564	-3.8071	3.1991	743.8068	-36.2644	264.3117	34.3263	777.1805	-0.0592	0.0182	-0.0073	-0.0462	0.0165	0.9585
34.6979	0.17113	-2.979	0.42839	1.0629	-0.46752	-3.2292	5.5892	737.4504	-36.1433	261.6393	33.1495	768.0699	-0.0592	0.0182	-0.0073	-0.0462	0.0165	0.9585
34.7214	0.25472	-1.5785	0.71595	0.68578	-0.81282	-1.3197	8.0887	732.908	-36.3307	259.7477	32.3271	760.5243	-0.0592	0.0182	-0.0073	-0.0462	0.0165	0.9585
34.745	0.46432	1.4878	1.0229	-0.24693	-1.1604	2.6662	10.6973	730.01	-36.8216	258.5831	31.8328	754.322	-0.0592	0.0182	-0.0073	-0.0462	0.0165	0.9585
34.7686	0.85337	6.9148	1.3002	-1.9931	-1.4304	9.5305	13.3915	728.4063	-37.5579	258.0184	31.5965	749.1079	-0.0592	0.0182	-0.0073	-0.0462	0.0165	0.9585
34.7921	1.4489	15.3729	1.4741	-4.8173	-1.5144	20.0211	16.1092	727.5092	-38.4263	257.8342	31.5104	744.3466	-0.0592	0.0182	-0.0073	-0.0462	0.0165	0.9585
34.8157	2.1576	27.4579	1.526	-8.9675	-1.4143	34.7737	18.7437	726.4643	-39.267	257.7076	31.4382	739.3	-0.0592	0.0182	-0.0073	-0.0462	0.0165	0.9585
34.8393	2.7359	43.6819	1.5969	-14.6551	-1.3808	54.3262	21.1435	724.1347	-39.9053	257.2048	31.2452	733.0084	-0.0592	0.0182	-0.0073	-0.0462	0.0165	0.9585
34.8629	2.8844	64.3007	1.9657	-21.9806	-1.8508	78.9291	23.0866	719.0749	-40.18	255.7702	30.8368	724.2576	-0.0592	0.0182	-0.0073	-0.0462	0.0165	0.9585
34.8864	2.4074	89.0437	2.9349	-30.8357	-3.2535	108.2243	24.3003	709.6037	-39.967	252.7572	30.1818	711.6214	-0.0592	0.0182	-0.0073	-0.0462	0.0165	0.9585
34.91	1.2334	116.7228	4.7048	-40.773	-5.8536	140.7991	24.5806	694.2102	-39.2024	247.5818	29.2955	693.7889	-0.0592	0.0182	-0.0073	-0.0462	0.0165	0.9585
34.9336	-0.49045	145.0889	7.1947	-50.9718	-9.4966	174.0314	23.914	672.2749	-37.8994	239.9869	28.2095	670.2146	-0.0592	0.0182	-0.0073	-0.0462	0.0165	0.9585
34.9571	-2.3912	172.0935	9.9528	-60.7032	-13.5136	205.5401	22.5231	644.6306	-36.1888	230.247	26.9882	641.6444	-0.0592	0.0182	-0.0073	-0.0462	0.0165	0.9585
34.9807	-4.2348	197.189	12.4669	-69.7822	-17.227	234.7373	20.8011	613.3951	-34.2872	219.1132	25.7145	609.9846	-0.0592	0.0182	-0.0073	-0.0462	0.0165	0.9585
35.0043	-5.9513	220.75	14.5032	-78.3358	-20.3515	262.1556	19.1172	581.0808	-32.3946	207.4999	24.4573	577.5093	-0.0592	0.0182	-0.0073	-0.0462	0.0165	0.9585
35.0279	-7.5177	243.1938	16.1251	-86.4841	-22.9608	288.3757	17.6715	549.7367	-30.6695	196.1695	23.2988	546.0807	-0.0592	0.0182	-0.0073	-0.0462	0.0165	0.9585
35.0514	-8.9012	264.5714	17.4891	-94.2102	-25.2272	313.5213	16.4857	520.588	-29.2315	185.5923	22.3422	516.8145	-0.0592	0.0182	-0.0073	-0.0462	0.0165	0.9585
35.075	-10.0955	284.5766	18.6828	-101.3796	-27.2456	337.2638	15.4897	494.1638	-28.1411	175.9854	21.6656	490.1888	-0.0592	0.0182	-0.0073	-0.0462	0.0165	0.9585
35.0986	-11.1194	302.8715	19.7164	-107.8612	-29.0211	359.2035	14.6197	470.5402	-27.3937	167.3981	21.2822	466.2577	-0.0592	0.0182	-0.0073	-0.0462	0.0165	0.9585
35.1221	-12.0164	319.4316	20.5928	-113.6435	-30.5553	379.2901	13.8716	449.4981	-26.9349	159.7661	21.1405	444.8011	-0.0592	0.0182	-0.0073	-0.0462	0.0165	0.9585
35.1457	-12.8822	334.6485	21.3466	-118.8657	-31.9049	397.9515	13.3101	430.6408	-26.6922	152.9515	21.1487	425.4348	-0.0592	0.0182	-0.0073	-0.0462	0.0165	0.9585
35.1693	-13.8303	349.1982	22.039	-123.769	-33.1649	415.9353	13.0394	413.4669	-26.5916	146.771	21.1995	407.6737	-0.0592	0.0182	-0.0073	-0.0462	0.0165	0.9585
35.1929	-14.9404	363.7875	22.747	-128.607	-34.4364	434.0106	13.1519	397.397	-26.5588	141.0087	21.1892	390.9616	-0.0592	0.0182	-0.0073	-0.0462	0.0165	0.9585
35.2164	-16.2404	378.9462	23.5273	-133.5757	-35.7813	452.726	13.6775	381.7728	-26.5176	135.4196	21.0326	374.68	-0.0592	0.0182	-0.0073	-0.0462	0.0165	0.9585
35.24	-17.6719	394.9536	24.3914	-138.7888	-37.1863	472.3147	14.5722	365.8744	-26.39	129.7396	20.6682	358.1638	-0.0592	0.0182	-0.0073	-0.0462	0.0165	0.9585
35.2636	-19.096	411.9631	25.3258	-144.3195	-38.5853	492.8358	15.7323	348.9888	-26.1014	123.7112	20.0593	340.761	-0.0592	0.0182	-0.0073	-0.0462	0.0165	0.9585
35.2871	-20.3767	430.2513	26.3396	-150.2811	-39.9427	514.4779	17.0053	330.453	-25.5848	117.0982	19.1926	321.8665	-0.0592	0.0182	-0.0073	-0.0462	0.0165	0.9585
35.3107	-21.4369	450.4326	27.5019	-156.8966	-41.312	537.8268	18.1979	309.6506	-24.7793	109.6828	18.0751	300.921	-0.0592	0.0182	-0.0073	-0.0462	0.0165	0.9585
35.3343	-22.2619	473.5706	28.9414	-164.5357	-42.837	563.9966	19.1002	286.0192	-23.6233	101.2682	16.7144	277.4144	-0.0592	0.0182	-0.0073	-0.0462	0.0165	0.9585
35.3579	-22.8806	501.0433	30.8176	-173.6696	-44.7141	594.4774	19.5029	259.1313	-22.0555	91.707	15.1159	250.9531	-0.0592	0.0182	-0.0073	-0.0462	0.0165	0.9585
35.3814	-23.3416	534.1296	33.2762	-184.7293	-47.1338	630.6641	19.2144	228.8666	-20.043	80.9618	13.305	221.4231	-0.0592	0.0182	-0.0073	-0.0462	0.0165	0.9585
35.405	-23.6654	573.4528	36.3981	-197.9199	-50.2047	673.2168	18.1043	195.6183	-17.6131	69.1754	11.3454	189.1835	-0.0592	0.0182	-0.0073	-0.0462	0.0165	0.9585
35.4286	-23.8066	618.5075	40.1448	-213.0673	-53.8825	721.5231	16.1693	160.4809	-14.8681	56.7357	9.3363	155.2454	-0.0592	0.0182	-0.0073	-0.0462	0.0165	0.9585
